HIERARCHY
ROOT Hips
{
	OFFSET 2.163856 112.167007 -7.466990
	CHANNELS 6 Xposition Yposition Zposition Xrotation Yrotation Zrotation
	JOINT Chest
	{
		OFFSET 0.933541 13.491737 1.804355
		CHANNELS 3 Xrotation Yrotation Zrotation
		JOINT Chest2
		{
			OFFSET 0.918407 21.273476 2.379630
			CHANNELS 3 Xrotation Yrotation Zrotation
			JOINT Chest3
			{
				OFFSET 1.561860 14.825897 -0.757025
				CHANNELS 3 Xrotation Yrotation Zrotation
				JOINT Neck
				{
					OFFSET 1.330452 17.211166 0.788551
					CHANNELS 3 Xrotation Yrotation Zrotation
					JOINT Head
					{
						OFFSET -0.546645 10.414459 1.033455
						CHANNELS 3 Xrotation Yrotation Zrotation
						End Site
						{
							OFFSET -0.514138 10.422348 0.968480
						}
					}
				}
				JOINT LeftCollar
				{
					OFFSET 4.371461 12.770813 4.427286
					CHANNELS 3 Xrotation Yrotation Zrotation
					JOINT LeftUpArm
					{
						OFFSET 16.515644 4.510269 -3.923027
						CHANNELS 3 Xrotation Yrotation Zrotation
						JOINT LeftLowArm
						{
							OFFSET 13.705309 26.852280 15.193646
							CHANNELS 3 Xrotation Yrotation Zrotation
							JOINT LeftHand
							{
								OFFSET 7.705673 28.326843 6.257719
								CHANNELS 3 Xrotation Yrotation Zrotation
								End Site
								{
									OFFSET 1.684135 6.190994 1.367668
								}
							}
						}
					}
				}
				JOINT RightCollar
				{
					OFFSET -3.757456 13.493668 2.368819
					CHANNELS 3 Xrotation Yrotation Zrotation
					JOINT RightUpArm
					{
						OFFSET -13.150561 -3.673981 -11.048122
						CHANNELS 3 Xrotation Yrotation Zrotation
						JOINT RightLowArm
						{
							OFFSET -17.787270 -27.597412 -7.856894
							CHANNELS 3 Xrotation Yrotation Zrotation
							JOINT RightHand
							{
								OFFSET -18.541496 -23.601646 -0.361221
								CHANNELS 3 Xrotation Yrotation Zrotation
								End Site
								{
									OFFSET -4.052414 -5.158386 -0.078955
								}
							}
						}
					}
				}
			}
		}
	}
	JOINT LeftUpLeg
	{
		OFFSET 9.022293 -1.185738 4.196594
		CHANNELS 3 Xrotation Yrotation Zrotation
		JOINT LeftLowLeg
		{
			OFFSET -10.035563 -45.584724 8.081520
			CHANNELS 3 Xrotation Yrotation Zrotation
			JOINT LeftFoot
			{
				OFFSET -8.394553 -42.630157 -10.619320
				CHANNELS 3 Xrotation Yrotation Zrotation
				JOINT LeftToe
				{
					OFFSET -1.233223 -19.326723 13.583694
					CHANNELS 3 Xrotation Yrotation Zrotation
					End Site
					{
						OFFSET 0.788306 -6.436330 22.748871
					}
				}
			}
		}
	}
	JOINT RightUpLeg
	{
		OFFSET -9.022310 1.185539 -4.196621
		CHANNELS 3 Xrotation Yrotation Zrotation
		JOINT RightLowLeg
		{
			OFFSET -9.232457 -46.350128 -3.230751
			CHANNELS 3 Xrotation Yrotation Zrotation
			JOINT RightFoot
			{
				OFFSET 17.856628 -34.197792 -22.632507
				CHANNELS 3 Xrotation Yrotation Zrotation
				JOINT RightToe
				{
					OFFSET 4.816572 -23.121822 1.318466
					CHANNELS 3 Xrotation Yrotation Zrotation
					End Site
					{
						OFFSET -6.154411 -19.286684 12.235325
					}
				}
			}
		}
	}
}
MOTION
Frames: 5
Frame Time: 0.033333
-17.240242 103.662086 -25.751501 -1.908892 13.816090 369.651750 5.021533 -1.089252 2.621656 3.798563 4.144191 -5.635132 -1.744139 -1.341664 0.382746 6.333831 6.013373 -2.686324 -0.000000 -0.000002 -0.000000 14.631778 -11.599263 -30.935993 33.203954 -44.635788 -70.939547 37.250305 -4.507553 74.021929 0.000002 -0.000000 0.000000 11.681364 13.273954 -8.456124 -42.023422 53.061773 20.660747 -0.287227 44.660664 -68.860506 0.000003 -0.000001 -0.000002 4.043196 -0.945083 0.774709 3.748886 0.051245 -2.092238 -15.240488 -8.320886 -8.194412 0.000001 0.000000 -0.000000 -2.314826 2.804385 -13.453816 5.011052 -5.891404 22.336687 1.798611 3.277362 3.015391 -0.000001 0.000002 -0.000002 
-17.266401 103.970467 -25.787268 -1.083447 13.657857 369.406956 4.243169 -1.026508 2.393076 3.388525 4.084175 -5.662841 -1.499935 -1.118878 0.321133 7.254769 5.861793 -2.402565 -0.000000 0.000000 -0.000000 14.820959 -13.029473 -30.662823 33.926274 -48.161938 -69.156553 34.755366 -5.386410 74.705488 0.000001 -0.000000 0.000002 11.939808 13.425564 -9.319750 -42.632955 55.726291 18.874886 3.116962 43.430840 -75.153439 -0.000001 -0.000002 0.000001 3.867026 -0.843036 1.053411 3.173254 0.340440 -2.302800 -15.104663 -8.372282 -8.213081 0.000001 -0.000000 0.000001 -2.923711 2.888368 -13.252388 5.279935 -5.695880 21.659059 1.306547 3.754831 4.066205 -0.000000 0.000001 -0.000002 
-17.297722 104.285011 -25.826504 -0.198542 13.354539 368.664378 3.417689 -0.923767 2.341992 3.134652 3.631957 -4.973285 -1.238526 -1.785962 -0.344831 7.682646 5.725767 -2.417487 -0.000001 0.000002 -0.000001 14.654080 -14.416009 -28.981435 34.817542 -50.634795 -65.670534 30.520209 -7.046281 72.528679 0.000001 -0.000002 0.000003 12.087533 13.534896 -10.632998 -42.992680 59.351735 15.881211 7.166499 40.604385 -83.065134 0.000005 0.000001 0.000001 3.445658 -0.693695 1.803019 3.258920 0.330524 -2.169569 -15.025322 -8.092862 -8.023499 0.000002 -0.000000 -0.000000 -3.719188 2.950035 -12.450646 6.250003 -5.072691 20.789487 1.169665 4.241522 5.480575 -0.000004 -0.000003 -0.000003 
-17.327663 104.585243 -25.865704 -0.222249 13.649243 368.151349 3.245191 -0.903734 2.681656 3.096690 3.503530 -4.794368 -1.463315 -1.927445 -0.565184 7.813932 5.468692 -1.636083 -0.000003 0.000000 -0.000001 14.495772 -15.706227 -28.759584 34.371168 -51.463969 -64.883935 30.358644 -7.860545 69.706001 0.000001 -0.000000 0.000002 12.280270 14.720383 -10.997742 -38.365927 62.488069 7.917677 9.641553 35.985483 -87.847878 -0.000001 -0.000002 0.000003 3.608544 -0.642393 2.444787 2.749499 0.142186 -2.258414 -14.858187 -8.244488 -8.144888 -0.000000 -0.000001 0.000001 -3.769545 2.829637 -11.765780 6.594100 -4.406107 20.551286 1.057385 3.898584 5.294596 -0.000003 -0.000004 -0.000001 
-17.381916 104.904572 -25.926830 -0.599685 14.743505 367.797545 1.573702 -0.710224 2.746044 4.717797 3.049072 -4.062217 -2.025616 -1.714108 -1.368480 7.682936 4.192073 -0.061913 -0.000001 0.000002 -0.000001 13.962410 -18.368983 -27.765824 31.804079 -49.545144 -66.170552 35.784690 -7.276830 66.143169 0.000000 -0.000001 0.000002 11.922192 14.914136 -12.661219 -29.253161 63.266041 -5.051491 8.417046 32.487173 -85.122530 0.000002 -0.000001 0.000003 4.522502 -0.394342 2.960199 1.511953 0.244477 -1.972690 -14.838443 -8.331450 -8.620475 0.000001 -0.000001 0.000000 -3.130814 2.262272 -11.133856 5.907797 -3.995845 20.284803 1.554919 3.176230 5.490452 -0.000004 0.000004 -0.000003 
